#define google_chrome_width 10
#define google_chrome_height 10
static unsigned char google_chrome_bits[] = {
   0x00, 0x00, 0x78, 0x00, 0xf4, 0x00, 0xce, 0x01, 0x36, 0x00, 0xb6, 0x01,
   0xce, 0x01, 0xec, 0x00, 0x68, 0x00, 0x00, 0x00 };
