#define eclipse_width 10
#define eclipse_height 10
static unsigned char eclipse_bits[] = {
   0x00, 0x00, 0x78, 0x00, 0x0c, 0x00, 0xfe, 0x01, 0x06, 0x00, 0xfe, 0x01,
   0x0e, 0x00, 0xfc, 0x00, 0x78, 0x00, 0x00, 0x00 };
