#define ghost_width 8
#define ghost_height 8
static unsigned char ghost_bits[] = {
   0x00, 0x3c, 0x7e, 0x5a, 0x5a, 0x7e, 0x24, 0x00};
