#define me_width 10
#define me_height 10
static unsigned char me_bits[] = {
   0x00, 0x00, 0x30, 0x00, 0x78, 0x00, 0x78, 0x00, 0x78, 0x00, 0x30, 0x00,
   0x78, 0x00, 0xfc, 0x00, 0xfc, 0x00, 0x00, 0x00 };
