#define shell_width 10
#define shell_height 10
static unsigned char shell_bits[] = {
   0x00, 0x00, 0xff, 0x03, 0x01, 0x02, 0x05, 0x02, 0x09, 0x02, 0x35, 0x02,
   0x01, 0x02, 0x01, 0x02, 0xff, 0x03, 0x00, 0x00 };
