#define web_width 10
#define web_height 10
static unsigned char web_bits[] = {
   0x00, 0x00, 0x78, 0x00, 0xa4, 0x00, 0x62, 0x01, 0xf2, 0x01, 0xfa, 0x01,
   0x5e, 0x01, 0x8c, 0x00, 0x78, 0x00, 0x00, 0x00 };
